<svg width="358" height="213" viewBox="0 0 358 213" fill="none" xmlns="http://www.w3.org/2000/svg">
<ellipse opacity="0.2" cx="179" cy="201.538" rx="179" ry="11.4619" fill="#98C3E8"/>
<path d="M298.495 168.024C294.928 167.144 300.725 177.929 304.069 183.432C306.608 187.834 311.872 187.283 311.872 184.532C311.872 181.781 302.954 169.125 298.495 168.024Z" fill="url(#paint0_linear)"/>
<path d="M324.728 169.1C324.573 165.473 315.738 174.016 311.339 178.741C307.781 182.391 309.807 187.219 312.48 186.44C315.153 185.661 324.922 173.633 324.728 169.1Z" fill="url(#paint1_linear)"/>
<path d="M311.846 164.327C309.529 161.508 307.603 173.569 306.93 179.951C306.282 184.976 310.826 187.657 312.5 185.457C314.174 183.257 314.742 167.851 311.846 164.327Z" fill="url(#paint2_linear)"/>
<path d="M61.5979 198.641L63.2701 192.589H58.2535L50.4498 202.493L61.5979 198.641Z" fill="#6FCF97"/>
<path d="M28.1537 202.493L32.6129 198.641L28.7111 195.89L16.4482 202.493H28.1537Z" fill="#6FCF97"/>
<path d="M132.946 77.5857L129.601 85.2892L127.929 87.4902L122.355 89.141L121.798 83.0882L125.7 73.7339L132.946 77.5857Z" fill="#F2994A"/>
<path d="M149.668 80.8871L151.34 83.0881L155.799 80.8871L153.57 77.0353C151.897 74.2841 148.719 70.5965 146.881 68.7815C145.208 67.1307 145.394 68.2312 145.208 69.3317L148.553 73.7338C148.553 73.7338 147.182 74.9025 146.881 75.9348C146.514 77.1907 146.707 78.1468 147.438 79.2363C148.039 80.1319 149.668 80.8871 149.668 80.8871Z" fill="url(#paint3_linear)"/>
<path d="M126.256 94.093L129.043 97.9447L134.06 94.093C132.574 92.4422 129.601 89.0306 129.601 88.5904V85.2889C128.486 85.6557 126.875 86.8486 125.142 86.3894C123.358 85.9169 122.54 84.1884 121.797 83.0879C121.797 83.0879 120.672 83.6331 120.125 84.1884C118.303 86.0366 118.821 88.5574 120.125 90.7914C121.487 93.1242 126.256 94.093 126.256 94.093Z" fill="url(#paint4_linear)"/>
<path d="M155.8 80.8877L176.429 100.616L165.275 103.448L151.34 83.0887L155.8 80.8877Z" fill="url(#paint5_linear)"/>
<path d="M189.802 90.2413C188.018 86.2795 194.632 80.5202 198.163 78.1357L213.212 95.7439L205.966 105.098L200.392 117.204L191.474 105.098L194.818 97.9449C193.889 97.0278 191.585 94.2032 189.802 90.2413Z" fill="url(#paint6_linear)"/>
<path d="M32.6137 198.091L28.7119 195.89L85.0096 141.415H129.044L138.52 159.574L80.5504 170.028L32.6137 198.091Z" fill="url(#paint7_linear)"/>
<path opacity="0.2" d="M136.494 159.456L80.4659 170.047L70.9292 175.343L87.6184 142.393L136.494 159.456Z" fill="black"/>
<path d="M152.454 130.41C148.887 132.611 142.235 134.261 139.634 134.812L150.782 150.219L184.784 140.864L198.719 108.399L193.145 101.246C190.729 100.879 184.449 99.4853 180.882 99.0451C176.423 98.4948 154.684 105.648 150.782 105.648C147.661 105.648 138.334 97.9446 134.06 94.0928L129.043 97.9446C132.759 102.897 141.418 113.242 146.323 115.002C152.454 117.203 169.176 112.801 168.062 115.002C166.947 117.203 156.914 127.658 152.454 130.41Z" fill="url(#paint8_linear)"/>
<path opacity="0.2" d="M174.64 117.091C172.733 121.798 158.746 128.075 151.991 130.624C159.143 125.917 164.508 119.445 168.084 115.326C171.263 114.149 176.548 112.384 174.64 117.091Z" fill="black"/>
<path d="M63.2705 192.588H58.2539C63.4563 171.862 75.199 130.409 80.55 130.409C85.9011 130.409 122.169 133.344 139.635 134.811L149.111 146.917L123.977 158.278L89.4685 150.769L63.2705 192.588Z" fill="url(#paint9_linear)"/>
<path d="M136.291 199.191C103.961 200.842 100.059 194.239 97.2724 189.287C93.9279 179.382 97.2724 172.779 113.994 162.875C130.717 152.97 151.34 143.066 168.063 133.711C184.785 124.357 210.425 79.7863 236.623 75.3843C262.821 70.9823 278.986 103.998 285.117 138.663C291.249 173.329 272.297 193.139 265.608 193.139C258.919 193.139 168.62 197.541 136.291 199.191Z" fill="url(#paint10_linear)"/>
<path d="M198.162 90.2414C194.594 88.9208 196.675 81.9876 198.162 78.6861C199.996 72.6333 212.096 62.1784 220.457 60.5277C228.818 58.8769 239.967 68.2312 239.967 74.284C239.967 80.3368 239.967 83.6383 247.77 88.0404C255.574 92.4424 257.246 103.998 248.885 108.95C240.524 113.902 241.639 110.051 229.376 114.453C217.113 118.855 210.424 139.214 205.408 130.41C200.391 121.606 208.752 122.156 203.735 116.103C198.719 110.051 210.982 100.696 210.424 96.2942C209.867 91.8922 202.621 91.8922 198.162 90.2414Z" fill="url(#paint11_linear)"/>
<rect x="39.6704" y="67.8157" width="43.4774" height="31.9147" fill="#5A98D0"/>
<path d="M56.7188 82.8982C58.1121 85.6013 60.3568 87.8077 63.095 89.1927L65.2237 87.0913C65.4849 86.8334 65.872 86.7475 66.2106 86.8621C67.2943 87.2155 68.465 87.4065 69.6648 87.4065C70.197 87.4065 70.6324 87.8364 70.6324 88.3617V91.6952C70.6324 92.2205 70.197 92.6504 69.6648 92.6504C60.5794 92.6504 53.2162 85.3816 53.2162 76.4127C53.2162 75.8873 53.6516 75.4575 54.1838 75.4575H57.5702C58.1024 75.4575 58.5378 75.8873 58.5378 76.4127C58.5378 77.6066 58.7313 78.7528 59.0893 79.8226C59.1958 80.1569 59.1183 80.5294 58.8474 80.7969L56.7188 82.8982Z" fill="white"/>
<rect x="61.9248" width="43.4774" height="31.9147" fill="#5A98D0"/>
<path d="M91.9187 8.59595H76.4376C75.3733 8.59595 74.5121 9.45559 74.5121 10.5063L74.5024 21.9682C74.5024 23.0188 75.3733 23.8785 76.4376 23.8785H91.9187C92.983 23.8785 93.8538 23.0188 93.8538 21.9682V10.5063C93.8538 9.45559 92.983 8.59595 91.9187 8.59595ZM91.9187 12.4166L84.1781 17.1924L76.4376 12.4166V10.5063L84.1781 15.2821L91.9187 10.5063V12.4166Z" fill="white"/>
<rect x="148.038" width="43.4774" height="31.9147" fill="#5A98D0"/>
<path d="M169.315 6.68579C163.974 6.68579 159.649 10.9649 159.649 16.2374C159.649 21.5098 163.974 25.7889 169.315 25.7889C174.666 25.7889 179 21.5098 179 16.2374C179 10.9649 174.666 6.68579 169.315 6.68579ZM176.02 12.4167H173.166C172.856 11.2228 172.411 10.0766 171.831 9.01638C173.611 9.61812 175.091 10.8407 176.02 12.4167ZM169.325 8.63431C170.128 9.7805 170.757 11.0509 171.173 12.4167H167.477C167.893 11.0509 168.522 9.7805 169.325 8.63431ZM161.836 18.1477C161.681 17.5364 161.584 16.8964 161.584 16.2374C161.584 15.5783 161.681 14.9384 161.836 14.3271H165.106C165.029 14.9575 164.971 15.5879 164.971 16.2374C164.971 16.8869 165.029 17.5173 165.106 18.1477H161.836ZM162.629 20.058H165.483C165.793 21.2519 166.238 22.3981 166.819 23.4584C165.038 22.8566 163.558 21.6436 162.629 20.058ZM165.483 12.4167H162.629C163.558 10.8312 165.038 9.61812 166.819 9.01638C166.238 10.0766 165.793 11.2228 165.483 12.4167ZM169.325 23.8404C168.522 22.6942 167.893 21.4239 167.477 20.058H171.173C170.757 21.4239 170.128 22.6942 169.325 23.8404ZM171.589 18.1477H167.06C166.973 17.5173 166.906 16.8869 166.906 16.2374C166.906 15.5879 166.973 14.9479 167.06 14.3271H171.589C171.676 14.9479 171.744 15.5879 171.744 16.2374C171.744 16.8869 171.676 17.5173 171.589 18.1477ZM171.831 23.4584C172.411 22.3981 172.856 21.2519 173.166 20.058H176.02C175.091 21.634 173.611 22.8566 171.831 23.4584ZM173.543 18.1477C173.621 17.5173 173.679 16.8869 173.679 16.2374C173.679 15.5879 173.621 14.9575 173.543 14.3271H176.814C176.968 14.9384 177.065 15.5783 177.065 16.2374C177.065 16.8964 176.968 17.5364 176.814 18.1477H173.543Z" fill="white"/>
<path d="M297.379 179.03C299.051 176.278 322.23 176.829 323.019 179.03C323.808 181.231 321.904 193.337 318.002 194.437C314.101 195.537 306.298 196.087 302.953 194.437C299.608 192.786 295.706 181.781 297.379 179.03Z" fill="#F2994A"/>
<defs>
<linearGradient id="paint0_linear" x1="304.623" y1="167.974" x2="304.623" y2="186.668" gradientUnits="userSpaceOnUse">
<stop stop-color="#6CEDA0"/>
<stop offset="1" stop-color="#199D56"/>
</linearGradient>
<linearGradient id="paint1_linear" x1="326.514" y1="174.887" x2="308.389" y2="180.309" gradientUnits="userSpaceOnUse">
<stop stop-color="#6CEDA0"/>
<stop offset="1" stop-color="#199D56"/>
</linearGradient>
<linearGradient id="paint2_linear" x1="316.777" y1="167.92" x2="305.591" y2="183.007" gradientUnits="userSpaceOnUse">
<stop stop-color="#6CEDA0"/>
<stop offset="1" stop-color="#199D56"/>
</linearGradient>
<linearGradient id="paint3_linear" x1="157.38" y1="71.8274" x2="144.683" y2="77.2938" gradientUnits="userSpaceOnUse">
<stop stop-color="#FFF8E1"/>
<stop offset="1" stop-color="#FFCC80"/>
</linearGradient>
<linearGradient id="paint4_linear" x1="136.316" y1="86.9008" x2="120.891" y2="96.565" gradientUnits="userSpaceOnUse">
<stop stop-color="#FFF8E1"/>
<stop offset="1" stop-color="#FFCC80"/>
</linearGradient>
<linearGradient id="paint5_linear" x1="165.696" y1="79.3741" x2="164.366" y2="101.573" gradientUnits="userSpaceOnUse">
<stop stop-color="#98D0FC"/>
<stop offset="1" stop-color="#3481D7"/>
</linearGradient>
<linearGradient id="paint6_linear" x1="195.502" y1="84.1407" x2="196.44" y2="99.2369" gradientUnits="userSpaceOnUse">
<stop stop-color="#FFF8E1"/>
<stop offset="1" stop-color="#FFCC80"/>
</linearGradient>
<linearGradient id="paint7_linear" x1="50.6642" y1="162.398" x2="92.8348" y2="179.245" gradientUnits="userSpaceOnUse">
<stop offset="0.0642604" stop-color="#EB5757"/>
<stop offset="1" stop-color="#872727"/>
</linearGradient>
<linearGradient id="paint8_linear" x1="144.243" y1="94.1431" x2="174.594" y2="130.276" gradientUnits="userSpaceOnUse">
<stop stop-color="#98D0FC"/>
<stop offset="1" stop-color="#3481D7"/>
</linearGradient>
<linearGradient id="paint9_linear" x1="83.446" y1="127.093" x2="119.874" y2="168.16" gradientUnits="userSpaceOnUse">
<stop stop-color="#EB5757"/>
<stop offset="1" stop-color="#872727"/>
</linearGradient>
<linearGradient id="paint10_linear" x1="286.1" y1="137.685" x2="198.33" y2="134.207" gradientUnits="userSpaceOnUse">
<stop stop-color="#FCF898"/>
<stop offset="1" stop-color="#D7BD34"/>
</linearGradient>
<linearGradient id="paint11_linear" x1="225.313" y1="60.3354" x2="225.313" y2="132.595" gradientUnits="userSpaceOnUse">
<stop stop-color="#AF6CED"/>
<stop offset="1" stop-color="#5E199D"/>
</linearGradient>
</defs>
</svg>
