<svg width="35" height="32" viewBox="0 0 35 32" fill="none" xmlns="http://www.w3.org/2000/svg">
<g clip-path="url(#clip0)">
<g clip-path="url(#clip1)">
<path d="M36.336 8.875C36.9326 8.875 37.4207 8.47422 37.4207 7.98438V5.01562C37.4207 4.52578 36.9326 4.125 36.336 4.125H34.5281V0.5625C34.5281 -1.4043 32.5847 -3 30.1893 -3H1.26344C-1.13198 -3 -3.07544 -1.4043 -3.07544 0.5625V31.4375C-3.07544 33.4043 -1.13198 35 1.26344 35H30.1893C32.5847 35 34.5281 33.4043 34.5281 31.4375V27.875H36.336C36.9326 27.875 37.4207 27.4742 37.4207 26.9844V24.0156C37.4207 23.5258 36.9326 23.125 36.336 23.125H34.5281V18.375H36.336C36.9326 18.375 37.4207 17.9742 37.4207 17.4844V14.5156C37.4207 14.0258 36.9326 13.625 36.336 13.625H34.5281V8.875H36.336ZM15.7264 6.5C18.9172 6.5 21.5115 8.63008 21.5115 11.25C21.5115 13.8699 18.9172 16 15.7264 16C12.5355 16 9.94119 13.8699 9.94119 11.25C9.94119 8.63008 12.5355 6.5 15.7264 6.5ZM25.8504 24.075C25.8504 24.8617 24.9465 25.5 23.8256 25.5H7.62712C6.50624 25.5 5.60231 24.8617 5.60231 24.075V22.65C5.60231 20.2898 8.32315 18.375 11.6767 18.375H12.1287C13.2405 18.7535 14.4518 18.9688 15.7264 18.9688C17.0009 18.9688 18.2212 18.7535 19.324 18.375H19.776C23.1296 18.375 25.8504 20.2898 25.8504 22.65V24.075Z" fill="#316099"/>
</g>
</g>
<defs>
<clipPath id="clip0">
<rect width="34.5694" height="32" fill="white" transform="translate(0.43042)"/>
</clipPath>
<clipPath id="clip1">
<rect width="40.4962" height="38" fill="white" transform="translate(-3.07544 -3)"/>
</clipPath>
</defs>
</svg>
